<?xml version="1.0" encoding="UTF-8"?>
<!-- Created with Inkscape (http://www.inkscape.org/) -->
<svg width="225.22mm" height="39.14mm" version="1.1" viewBox="0 0 225.22 39.14" xmlns="http://www.w3.org/2000/svg">
 <g transform="translate(409.61 -130.19)">
  <g transform="matrix(.26458 0 0 .26458 -549.97 6.8292)">
   <circle class="st0" cx="552.58" cy="488.32" r="22.08" fill="#f2f4ff"/>
   <circle class="st0" cx="604.46" cy="488.32" r="22.08" fill="#f2f4ff"/>
   <circle class="st0" cx="656.35" cy="488.32" r="22.08" fill="#f2f4ff"/>
   <circle class="st0" cx="604.46" cy="540.21" r="22.08" fill="#f2f4ff"/>
   <circle class="st0" cx="604.46" cy="592.09" r="22.08" fill="#f2f4ff"/>
   <path class="st0" d="m725.49 523h-20.58v-12.25h53.89v12.25h-20.58v56.34h-12.74v-56.34z" fill="#f2f4ff"/>
   <path class="st0" d="m801.81 564.64c-1.08 3.92-7.25 15.68-23.03 15.68-14.7 0-25.47-10.78-25.47-25.96 0-15.19 10.78-25.96 25.47-25.96 13.72 0 24.5 10.78 24.5 24.99 0 1.47-0.2 2.65-0.29 3.53l-0.2 1.37h-37.23c1.08 6.96 6.27 11.76 13.23 11.76 5.78 0 9.31-3.33 10.29-5.39h12.73zm-10.78-14.69c-1.08-6.37-5.29-11.27-12.25-11.27-7.45 0-11.76 4.9-13.23 11.27z" fill="#f2f4ff"/>
   <path class="st0" d="m810.62 510.75h12.25v68.58h-12.25z" fill="#f2f4ff"/>
   <path class="st0" d="m878.71 564.64c-1.08 3.92-7.25 15.68-23.03 15.68-14.7 0-25.47-10.78-25.47-25.96 0-15.19 10.78-25.96 25.47-25.96 13.72 0 24.5 10.78 24.5 24.99 0 1.47-0.2 2.65-0.29 3.53l-0.2 1.37h-37.23c1.08 6.96 6.27 11.76 13.23 11.76 5.78 0 9.31-3.33 10.29-5.39h12.73zm-10.78-14.69c-1.08-6.37-5.29-11.27-12.25-11.27-7.45 0-11.76 4.9-13.23 11.27z" fill="#f2f4ff"/>
   <path class="st0" d="m891.44 541.13h-8.33v-11.76h8.33v-7.35c0-7.45 4.8-12.25 12.25-12.25h10.78v10.78h-7.35c-1.96 0-3.43 1.47-3.43 3.43v5.39h10.78v11.76h-10.78v38.21h-12.25z" fill="#f2f4ff"/>
   <path class="st0" d="m967.25 554.35c0 15.19-10.78 25.96-25.47 25.96-14.7 0-25.47-10.78-25.47-25.96 0-15.19 10.78-25.96 25.47-25.96s25.47 10.78 25.47 25.96zm-12.25 0c0-8.82-5.88-14.7-13.23-14.7s-13.23 5.88-13.23 14.7 5.88 14.7 13.23 14.7 13.23-5.88 13.23-14.7z" fill="#f2f4ff"/>
   <path class="st0" d="m974.59 529.37h11.27l0.98 4.9h0.49c0.88-1.08 2.06-2.06 3.33-2.94 2.25-1.47 5.68-2.94 10.39-2.94 11.27 0 19.6 8.33 19.6 21.07v29.88h-12.25v-28.9c0-6.37-4.41-10.78-10.78-10.78s-10.78 4.41-10.78 10.78v28.9h-12.25z" fill="#f2f4ff"/>
   <path class="st0" d="m1098.6 560.72c-1.57 7.84-7.74 19.6-23.51 19.6-14.7 0-25.47-10.78-25.47-25.96 0-15.19 10.78-25.96 25.47-25.96 15.78 0 21.95 11.76 23.51 19.11h-12.25c-1.08-2.84-3.92-7.84-11.27-7.84s-13.23 5.88-13.23 14.7 5.88 14.7 13.23 14.7 10.19-4.9 11.27-8.33h12.25z" fill="#f2f4ff"/>
   <path class="st0" d="m1135.6 574.44h-0.49c-0.88 1.08-2.06 2.06-3.43 2.94-2.35 1.47-5.78 2.94-10.78 2.94-11.36 0-18.12-6.96-18.12-15.19 0-9.8 6.86-16.66 20.57-16.66h11.27v-0.98c0-5.49-3.33-9.31-8.82-9.31s-8.33 3.53-8.82 6.37h-12.25c1.08-8.23 7.74-16.17 21.07-16.17 12.74 0 21.07 8.43 21.07 19.11v31.84h-10.29zm-0.97-16.66h-10.29c-6.37 0-9.31 2.45-9.31 6.37s2.84 6.37 7.84 6.37c7.45 0 11.76-4.31 11.76-11.27z" fill="#f2f4ff"/>
   <path class="st0" d="m1030 529.37h12.25v49.97h-12.25z" fill="#f2f4ff"/>
   <circle class="st0" cx="1036.1" cy="514.94" r="7.25" fill="#f2f4ff"/>
   <polygon class="st0" points="946.18 508.3 958.92 508.3 947.16 522.51 936.88 522.51" fill="#f2f4ff"/>
   <g fill="#f2f4ff">
    <path class="st0" d="m1196.9 523.01h-20.58v-12.25h53.89v12.25h-20.58v56.34h-12.74v-56.34z"/>
    <path class="st0" d="m1273.2 564.65c-1.08 3.92-7.25 15.68-23.03 15.68-14.7 0-25.48-10.78-25.48-25.97s10.78-25.97 25.48-25.97c13.72 0 24.5 10.78 24.5 24.99 0 1.47-0.19 2.65-0.29 3.53l-0.2 1.37h-37.24c1.08 6.96 6.27 11.76 13.23 11.76 5.78 0 9.31-3.33 10.29-5.39zm-10.78-14.7c-1.08-6.37-5.29-11.27-12.25-11.27-7.45 0-11.76 4.9-13.23 11.27z"/>
    <path class="st0" d="m1328.8 560.74c-1.57 7.84-7.74 19.6-23.52 19.6-14.7 0-25.48-10.78-25.48-25.97s10.78-25.97 25.48-25.97c15.78 0 21.95 11.76 23.52 19.11h-12.25c-1.08-2.84-3.92-7.84-11.27-7.84s-13.23 5.88-13.23 14.7 5.88 14.7 13.23 14.7 10.19-4.9 11.27-8.33z"/>
    <path class="st0" d="m1335.7 510.76h12.25v23.52h0.49c0.88-1.08 2.06-2.06 3.33-2.94 2.25-1.47 5.68-2.94 10.39-2.94 11.27 0 19.6 8.33 19.6 21.07v29.89h-12.25v-28.91c0-6.37-4.41-10.78-10.78-10.78s-10.78 4.41-10.78 10.78v28.91h-12.25z"/>
   </g>
  </g>
 </g>
</svg>
